<svg xmlns="http://www.w3.org/2000/svg" x="0px" y="0px"
width="100" height="100"
viewBox="0 0 172 172"
style=" fill:#000000;"><g fill="none" fill-rule="nonzero" stroke="none" stroke-width="1" stroke-linecap="butt" stroke-linejoin="miter" stroke-miterlimit="10" stroke-dasharray="" stroke-dashoffset="0" font-family="none" font-weight="none" font-size="none" text-anchor="none" style="mix-blend-mode: normal"><path d="M0,172v-172h172v172z" fill="none"></path><g id="original-icon" fill="#ffffff"><path d="M34.31731,0.82692c-1.44712,0.18089 -2.84254,1.21454 -3.72115,3.30769l-23.77404,57.26442c-1.75721,4.1863 0.46515,7.02885 4.96154,6.40865l60.77885,-8.68269c4.4964,-0.62019 4.31551,-3.5661 1.65385,-7.23558l-10.54327,-14.47115c6.89964,-2.81671 14.36779,-4.34135 22.32692,-4.34135c32.9994,0 59.53846,26.53906 59.53846,59.53846c-0.02584,0.33594 -0.02584,0.69772 0,1.03365l-0.41346,5.58173l-0.82692,4.96154l2.48077,8.26923l8.0625,3.30769l7.44231,-4.13462l1.65385,-4.34135l1.03365,-5.99519v-1.03365l0.41346,-7.02885c0,-0.20673 0,-0.41346 0,-0.62019c0,-43.72356 -35.66106,-79.38462 -79.38462,-79.38462c-12.22296,0 -23.90324,2.86839 -34.31731,7.85577l-13.02404,-17.77885c-1.34375,-1.83474 -2.89423,-2.66166 -4.34135,-2.48077zM23.15385,102.95192l-8.47596,0.41346l-5.16827,6.82212l0.41346,4.75481l0.82692,3.30769l0.41346,0.82692l2.27404,5.58173l0.41346,0.82692l1.44712,3.30769l6.82212,5.16827l8.26923,-1.86058l3.72115,-7.64904l-1.03365,-4.54808l-1.65385,-3.30769l-1.65385,-4.13462l-0.82692,-3.30769zM144.71154,126.51923l-8.47596,0.20673l-3.72115,2.89423l-0.20673,0.41346l-0.20673,0.20673l-0.41346,0.62019l-3.30769,3.51442l-0.62019,0.62019l-3.10096,2.6875l-3.10096,8.0625l4.13462,7.44231l8.26923,1.44712l4.13462,-2.27404l3.72115,-3.30769l0.62019,-0.62019l4.54808,-4.96154l0.62019,-0.82692l0.82692,-1.24038l1.65385,-8.26923zM42.58654,139.75l-6.20192,5.78846l0.62019,8.47596l3.10096,3.30769l4.75481,3.30769l0.82692,0.41346l5.375,2.89423l0.82692,0.41346l1.24038,0.41346l8.47596,-0.20673l5.16827,-6.82212l-2.06731,-8.26923l-3.72115,-2.89423l-0.62019,-0.20673l-0.62019,-0.41346l-3.92788,-2.06731l-0.82692,-0.41346l-3.92788,-2.6875zM104.39904,150.29327l-4.54808,0.20673l-1.44712,0.41346h-0.20673l-0.62019,0.20673l-4.96154,0.62019l-3.92788,0.20673l-7.44231,4.13462l-1.65385,8.26923l5.58173,6.61538l4.54808,0.82692l3.92788,-0.20673h1.03365l6.82212,-1.03365l1.03365,-0.20673l2.27404,-0.62019l6.40865,-5.58173v-8.47596z"></path></g></g></svg>
