<svg width="24" height="24" viewBox="0 0 24 24" fill="none" xmlns="http://www.w3.org/2000/svg">
<path d="M0 4C0 1.79086 1.79086 0 4 0H20C22.2091 0 24 1.79086 24 4V20C24 22.2091 22.2091 24 20 24H4C1.79086 24 0 22.2091 0 20V4Z" fill="#F85F59"/>
<path fill-rule="evenodd" clip-rule="evenodd" d="M11.9549 12C14.1249 12 15.9098 10.2234 15.9098 8C15.9098 5.7766 14.1249 4 11.9549 4C9.78487 4 8 5.7766 8 8C8 10.2234 9.78487 12 11.9549 12ZM17.9098 8C17.9098 10.9544 15.7904 13.4101 13 13.9079V17H15.4286C15.9809 17 16.4286 17.4477 16.4286 18C16.4286 18.5523 15.9809 19 15.4286 19H13V21C13 21.5523 12.5523 22 12 22C11.4477 22 11 21.5523 11 21V19H8.57145C8.01916 19 7.57145 18.5523 7.57145 18C7.57145 17.4477 8.01916 17 8.57145 17H11V13.9233C8.16515 13.4629 6 10.9862 6 8C6 4.68629 8.66609 2 11.9549 2C15.2437 2 17.9098 4.68629 17.9098 8Z" fill="white"/>
</svg>
