<svg width="24" height="24" viewBox="0 0 24 24" fill="none" xmlns="http://www.w3.org/2000/svg">
<path d="M0 4C0 1.79086 1.79086 0 4 0H20C22.2091 0 24 1.79086 24 4V20C24 22.2091 22.2091 24 20 24H4C1.79086 24 0 22.2091 0 20V4Z" fill="#80CFE0"/>
<path fill-rule="evenodd" clip-rule="evenodd" d="M13.0001 4C12.4478 4 12.0001 4.44772 12.0001 5C12.0001 5.55228 12.4478 6 13.0001 6H16.5859L13.9794 8.60647C11.635 6.92321 8.35008 7.13526 6.24271 9.24263C3.89956 11.5858 3.89957 15.3848 6.24271 17.7279C8.58586 20.0711 12.3848 20.0711 14.728 17.7279C16.8251 15.6308 17.0453 12.3676 15.3887 10.0256L18.0001 7.41424V11C18.0001 11.5523 18.4478 12 19.0001 12C19.5523 12 20.0001 11.5523 20.0001 11V5C20.0001 4.44772 19.5523 4 19.0001 4H13.0001ZM13.3138 10.6568C11.7517 9.09475 9.21902 9.09475 7.65692 10.6568C6.09483 12.2189 6.09483 14.7516 7.65692 16.3137C9.21902 17.8758 11.7517 17.8758 13.3138 16.3137C14.8759 14.7516 14.8759 12.2189 13.3138 10.6568Z" fill="white"/>
</svg>
