<svg width="99" height="60" viewBox="0 0 99 60" fill="none" xmlns="http://www.w3.org/2000/svg">
<path d="M71.1379 13.373C71.1379 7.094 76.2299 2 82.5119 2C85.3759 2 87.9929 3.059 89.9929 4.807" stroke="black" stroke-width="3" stroke-miterlimit="10" stroke-linecap="round" stroke-linejoin="round"/>
<path d="M31.103 33.882L7.177 43.028L2 37.684L71.138 14.101" stroke="black" stroke-width="3" stroke-miterlimit="10" stroke-linecap="round" stroke-linejoin="round"/>
<path d="M89.989 4.80999L97.097 2.53699L93.197 9.48499L93.82 12.166C96.076 20.728 96.468 40.773 74.528 45.891C55.021 50.441 31.103 33.883 31.103 33.883" stroke="black" stroke-width="3" stroke-miterlimit="10" stroke-linecap="round" stroke-linejoin="round"/>
<path d="M80.772 27.656C80.268 32.435 77.138 37.489 69.702 39.936C59.58 43.268 47.135 41.134 31.376 33.817" stroke="black" stroke-width="3" stroke-miterlimit="10" stroke-linecap="round" stroke-linejoin="round"/>
<path d="M52.3479 44.976L60.2529 58.469" stroke="black" stroke-width="3" stroke-miterlimit="10" stroke-linecap="round" stroke-linejoin="round"/>
<path d="M62.6609 47.105L71.5929 58.469" stroke="black" stroke-width="3" stroke-miterlimit="10" stroke-linecap="round" stroke-linejoin="round"/>
<path d="M52.3479 58.469H60.2539H80.0579" stroke="black" stroke-width="3" stroke-miterlimit="10" stroke-linecap="round" stroke-linejoin="round"/>
<path d="M84.215 13.374C85.5372 13.374 86.609 12.3022 86.609 10.98C86.609 9.65783 85.5372 8.586 84.215 8.586C82.8929 8.586 81.821 9.65783 81.821 10.98C81.821 12.3022 82.8929 13.374 84.215 13.374Z" fill="black"/>
</svg>
