<svg width="121" height="83" viewBox="0 0 121 83" fill="none" xmlns="http://www.w3.org/2000/svg">
<path d="M98.1311 8.861C100.163 7.82 102.517 7.224 105.024 7.224C107.539 7.224 109.896 7.822 111.927 8.869" stroke="black" stroke-width="3" stroke-miterlimit="10" stroke-linecap="round" stroke-linejoin="round"/>
<path d="M105.024 31.982C97.3601 31.982 91.1521 26.441 91.1521 19.605" stroke="black" stroke-width="3" stroke-miterlimit="10" stroke-linecap="round" stroke-linejoin="round"/>
<path d="M91.1521 19.605V2L98.1341 8.863" stroke="black" stroke-width="3" stroke-miterlimit="10" stroke-linecap="round" stroke-linejoin="round"/>
<path d="M111.913 8.863L118.894 2V19.605C118.894 19.605 121.363 50.418 95.9829 56.392" stroke="black" stroke-width="3" stroke-miterlimit="10" stroke-linecap="round" stroke-linejoin="round"/>
<path d="M91.1519 20.558C91.1519 20.558 77.4199 20.898 63.6309 34.015C42.2329 54.378 49.3219 79.105 49.3219 79.105" stroke="black" stroke-width="3" stroke-miterlimit="10" stroke-linecap="round" stroke-linejoin="round"/>
<path d="M105.79 52.099V73.879" stroke="black" stroke-width="3" stroke-miterlimit="10" stroke-linecap="round" stroke-linejoin="round"/>
<path d="M95.259 57.164V74.058" stroke="black" stroke-width="3" stroke-miterlimit="10" stroke-linecap="round" stroke-linejoin="round"/>
<path d="M105.79 74.058C105.79 74.058 111.361 75.259 111.361 81.144" stroke="black" stroke-width="3" stroke-miterlimit="10" stroke-linecap="round" stroke-linejoin="round"/>
<path d="M95.3 74.058C95.3 74.058 100.873 75.259 100.873 81.144" stroke="black" stroke-width="3" stroke-miterlimit="10" stroke-linecap="round" stroke-linejoin="round"/>
<path d="M81.7969 74.058C81.7969 74.058 87.3709 75.259 87.3709 81.144" stroke="black" stroke-width="3" stroke-miterlimit="10" stroke-linecap="round" stroke-linejoin="round"/>
<path d="M66.7891 54.539C66.7891 54.539 78.5501 58.408 81.7981 73.879" stroke="black" stroke-width="3" stroke-miterlimit="10" stroke-linecap="round" stroke-linejoin="round"/>
<path d="M111.361 81.144H45.314" stroke="black" stroke-width="3" stroke-miterlimit="10" stroke-linecap="round" stroke-linejoin="round"/>
<path d="M45.314 81.144H5.713C3.662 81.144 2 79.484 2 77.429C2 75.378 3.662 73.718 5.713 73.718H48.196" stroke="black" stroke-width="3" stroke-miterlimit="10" stroke-linecap="round" stroke-linejoin="round"/>
<path d="M99.4799 19.302C100.802 19.302 101.874 18.2302 101.874 16.908C101.874 15.5858 100.802 14.514 99.4799 14.514C98.1578 14.514 97.0859 15.5858 97.0859 16.908C97.0859 18.2302 98.1578 19.302 99.4799 19.302Z" fill="black"/>
<path d="M110.539 19.302C111.861 19.302 112.933 18.2302 112.933 16.908C112.933 15.5858 111.861 14.514 110.539 14.514C109.217 14.514 108.145 15.5858 108.145 16.908C108.145 18.2302 109.217 19.302 110.539 19.302Z" fill="black"/>
</svg>
