<svg width="117" height="85" viewBox="0 0 117 85" fill="none" xmlns="http://www.w3.org/2000/svg">
<path d="M24.815 4.64142L2 16.7014C2 16.7014 3.255 26.8034 12.502 27.5374C19.021 28.0544 24.849 23.7154 24.849 23.7154L24.544 33.0214L24.17 44.4174C24.17 44.4174 21.821 61.7524 41.047 67.8594" stroke="black" stroke-width="3" stroke-miterlimit="10" stroke-linecap="round" stroke-linejoin="round"/>
<path d="M112.594 81.8764L115.155 62.3764C115.155 62.3764 114.32 61.9244 111.406 57.1804C108.486 52.4374 109.113 46.5004 104.737 39.0984C100.361 31.6964 90.148 31.6264 90.148 31.6264H50.634C50.634 31.6264 48.419 27.8014 45.165 22.0644" stroke="black" stroke-width="3" stroke-miterlimit="10" stroke-linecap="round" stroke-linejoin="round"/>
<path d="M47.8559 19.9794C47.8559 19.9794 43.8419 12.4184 40.6469 6.3254C36.1249 -2.3016 24.8149 4.6414 24.8149 4.6414" stroke="black" stroke-width="3" stroke-miterlimit="10" stroke-linecap="round" stroke-linejoin="round"/>
<path d="M41.047 59.0024L42.265 74.6104" stroke="black" stroke-width="3" stroke-miterlimit="10" stroke-linecap="round" stroke-linejoin="round"/>
<path d="M52.4509 68.2774L46.6169 82.5704" stroke="black" stroke-width="3" stroke-miterlimit="10" stroke-linecap="round" stroke-linejoin="round"/>
<path d="M90.9741 56.4704L52.451 68.2774" stroke="black" stroke-width="3" stroke-miterlimit="10" stroke-linecap="round" stroke-linejoin="round"/>
<path d="M82.863 48.5964C82.863 48.5964 87.842 57.4674 106.842 64.6824L105.906 73.8554" stroke="black" stroke-width="3" stroke-miterlimit="10" stroke-linecap="round" stroke-linejoin="round"/>
<path d="M42.265 74.6104C42.265 74.6104 36.546 75.8404 36.546 81.8764" stroke="black" stroke-width="3" stroke-miterlimit="10" stroke-linecap="round" stroke-linejoin="round"/>
<path d="M105.512 74.6104C105.512 74.6104 99.795 75.8404 99.795 81.8764" stroke="black" stroke-width="3" stroke-miterlimit="10" stroke-linecap="round" stroke-linejoin="round"/>
<path d="M93.114 81.8764L95.674 61.2264" stroke="black" stroke-width="3" stroke-miterlimit="10" stroke-linecap="round" stroke-linejoin="round"/>
<path d="M77.979 60.4554C80.839 62.0394 83.316 63.1444 87.363 64.6824L86.424 73.8554" stroke="black" stroke-width="3" stroke-miterlimit="10" stroke-linecap="round" stroke-linejoin="round"/>
<path d="M86.028 74.6104C86.028 74.6104 80.313 75.8404 80.313 81.8764" stroke="black" stroke-width="3" stroke-miterlimit="10" stroke-linecap="round" stroke-linejoin="round"/>
<path d="M46.617 82.5704H36.546" stroke="black" stroke-width="3" stroke-miterlimit="10" stroke-linecap="round" stroke-linejoin="round"/>
<path d="M32.905 63.8454L33.591 74.6104" stroke="black" stroke-width="3" stroke-miterlimit="10" stroke-linecap="round" stroke-linejoin="round"/>
<path d="M33.591 74.6104C33.591 74.6104 27.873 75.8404 27.873 81.8764" stroke="black" stroke-width="3" stroke-miterlimit="10" stroke-linecap="round" stroke-linejoin="round"/>
<path d="M37.943 82.5704H27.873" stroke="black" stroke-width="3" stroke-miterlimit="10" stroke-linecap="round" stroke-linejoin="round"/>
<path d="M112.347 82.5704H100.649" stroke="black" stroke-width="3" stroke-miterlimit="10" stroke-linecap="round" stroke-linejoin="round"/>
<path d="M92.57 82.5704H80.313" stroke="black" stroke-width="3" stroke-miterlimit="10" stroke-linecap="round" stroke-linejoin="round"/>
<path d="M21.721 14.7024C23.0432 14.7024 24.115 13.6306 24.115 12.3084C24.115 10.9862 23.0432 9.9144 21.721 9.9144C20.3989 9.9144 19.327 10.9862 19.327 12.3084C19.327 13.6306 20.3989 14.7024 21.721 14.7024Z" fill="black"/>
<path d="M101.37 34.8444C108.154 26.6474 108.134 18.6074 108.123 18.0344C108.091 16.3844 109.398 15.0094 111.048 14.9694C112.737 14.8994 114.071 16.2224 114.12 17.8714C114.125 18.0514 114.276 29.0884 105.002 39.6354" stroke="black" stroke-width="3" stroke-miterlimit="10" stroke-linecap="round" stroke-linejoin="round"/>
<path d="M29.3051 4.05841C29.3051 4.05841 29.5861 26.7274 47.8571 19.9794" stroke="black" stroke-width="3" stroke-miterlimit="10" stroke-linecap="round" stroke-linejoin="round"/>
</svg>
