<svg width="87" height="82" viewBox="0 0 87 82" fill="none" xmlns="http://www.w3.org/2000/svg">
<path d="M26.315 43.833C25.069 43.833 24.061 42.825 24.061 41.579C24.061 40.335 25.069 39.327 26.315 39.327" stroke="black" stroke-width="3" stroke-miterlimit="10" stroke-linecap="round" stroke-linejoin="round"/>
<path d="M26.824 43.833C26.824 43.833 33.205 44.337 35.437 49.124C37.669 53.909 40 60.606 47.771 60.606H53.832H58.721" stroke="black" stroke-width="3" stroke-miterlimit="10" stroke-linecap="round" stroke-linejoin="round"/>
<path d="M26.824 39.327C26.824 39.327 33.205 38.821 35.437 34.036C37.669 29.249 40 22.554 47.771 22.554H53.832H62.71" stroke="black" stroke-width="3" stroke-miterlimit="10" stroke-linecap="round" stroke-linejoin="round"/>
<path d="M53.8319 22.553C53.8319 22.553 50.3219 35.627 61.8049 37.543C61.8049 37.543 62.9749 32.971 67.7599 32.971V50.186C62.9749 50.186 61.8049 45.616 61.8049 45.616C50.3229 47.53 53.8319 60.606 53.8319 60.606" stroke="black" stroke-width="3" stroke-miterlimit="10" stroke-linecap="round" stroke-linejoin="round"/>
<path d="M39.7529 42.215C41.0751 42.215 42.1469 41.1432 42.1469 39.821C42.1469 38.4988 41.0751 37.427 39.7529 37.427C38.4307 37.427 37.3589 38.4988 37.3589 39.821C37.3589 41.1432 38.4307 42.215 39.7529 42.215Z" fill="black"/>
<path d="M17.569 32.622C18.6531 32.622 19.532 31.7431 19.532 30.659C19.532 29.5749 18.6531 28.696 17.569 28.696C16.4848 28.696 15.606 29.5749 15.606 30.659C15.606 31.7431 16.4848 32.622 17.569 32.622Z" stroke="black" stroke-width="3" stroke-miterlimit="10" stroke-linecap="round" stroke-linejoin="round"/>
<path d="M22.599 20.028C24.2928 20.028 25.666 18.6549 25.666 16.961C25.666 15.2672 24.2928 13.894 22.599 13.894C20.9051 13.894 19.532 15.2672 19.532 16.961C19.532 18.6549 20.9051 20.028 22.599 20.028Z" stroke="black" stroke-width="3" stroke-miterlimit="10" stroke-linecap="round" stroke-linejoin="round"/>
<path d="M43.678 2H2V80.29H11.425L17.584 74.131H43.678" stroke="black" stroke-width="3" stroke-miterlimit="10" stroke-linecap="round" stroke-linejoin="round"/>
<path d="M43.678 2H85.356V80.29H75.931L69.772 74.131H43.678" stroke="black" stroke-width="3" stroke-miterlimit="10" stroke-linecap="round" stroke-linejoin="round"/>
</svg>
